<svg width="26" height="28" viewBox="0 0 26 28" fill="none" xmlns="http://www.w3.org/2000/svg">
<path d="M23.5625 4.375H2.4375C1.98809 4.375 1.625 4.76602 1.625 5.25V22.75C1.625 23.234 1.98809 23.625 2.4375 23.625H23.5625C24.0119 23.625 24.375 23.234 24.375 22.75V5.25C24.375 4.76602 24.0119 4.375 23.5625 4.375ZM21.5109 7.35273L13.5002 14.0656C13.3021 14.2324 13.0254 14.2324 12.8273 14.0656L4.81406 7.35273C4.78386 7.32763 4.7617 7.29297 4.7507 7.25363C4.7397 7.21428 4.74041 7.17221 4.75273 7.13332C4.76505 7.09443 4.78836 7.06066 4.81939 7.03675C4.85042 7.01285 4.88762 6.99999 4.92578 7H21.3992C21.4374 6.99999 21.4746 7.01285 21.5056 7.03675C21.5366 7.06066 21.56 7.09443 21.5723 7.13332C21.5846 7.17221 21.5853 7.21428 21.5743 7.25363C21.5633 7.29297 21.5411 7.32763 21.5109 7.35273Z" fill="#9B51E0"/>
</svg>
