<svg width="30" height="30" viewBox="0 0 30 30" fill="none" xmlns="http://www.w3.org/2000/svg">
<path d="M25.6087 21.425L20.5275 16.805C20.2873 16.5867 19.9717 16.4703 19.6472 16.4803C19.3228 16.4903 19.015 16.626 18.7887 16.8587L15.7975 19.935C15.0775 19.7975 13.63 19.3462 12.14 17.86C10.65 16.3687 10.1987 14.9175 10.065 14.2025L13.1387 11.21C13.3718 10.9839 13.5077 10.676 13.5177 10.3515C13.5277 10.027 13.4111 9.7113 13.1925 9.47125L8.57374 4.39125C8.35504 4.15044 8.05109 4.00438 7.72643 3.98407C7.40177 3.96377 7.08198 4.07082 6.83499 4.2825L4.12249 6.60875C3.90638 6.82564 3.77739 7.11431 3.75999 7.42C3.74124 7.7325 3.38374 15.135 9.12374 20.8775C14.1312 25.8837 20.4037 26.25 22.1312 26.25C22.3837 26.25 22.5387 26.2425 22.58 26.24C22.8856 26.2229 23.1741 26.0933 23.39 25.8762L25.715 23.1625C25.9275 22.9163 26.0353 22.5968 26.0155 22.2721C25.9956 21.9475 25.8497 21.6435 25.6087 21.425Z" fill="#9B51E0"/>
</svg>
