<svg width="32" height="32" viewBox="0 0 32 32" fill="none" xmlns="http://www.w3.org/2000/svg">
<path d="M16 3.21438C11.5808 3.21438 8 6.78078 8 11.1984C8 18.8368 16 28.7984 16 28.7984C16 28.7984 24 18.8352 24 11.1984C24 6.78238 20.4192 3.21438 16 3.21438ZM16 15.616C14.8543 15.616 13.7555 15.1608 12.9453 14.3507C12.1351 13.5405 11.68 12.4417 11.68 11.296C11.68 10.1502 12.1351 9.05144 12.9453 8.24128C13.7555 7.43112 14.8543 6.97598 16 6.97598C17.1457 6.97598 18.2445 7.43112 19.0547 8.24128C19.8649 9.05144 20.32 10.1502 20.32 11.296C20.32 12.4417 19.8649 13.5405 19.0547 14.3507C18.2445 15.1608 17.1457 15.616 16 15.616Z" fill="#9B51E0"/>
</svg>
