<svg width="712" height="19" viewBox="0 0 712 19" fill="none" xmlns="http://www.w3.org/2000/svg">
<path fill-rule="evenodd" clip-rule="evenodd" d="M10.1191 0.385595C10.2413 0.507515 10.3383 0.652351 10.4045 0.811807C10.4706 0.971263 10.5047 1.14221 10.5047 1.31485C10.5047 1.48748 10.4706 1.65843 10.4045 1.81788C10.3383 1.97734 10.2413 2.12218 10.1191 2.2441L3.17072 9.18985L10.1191 16.1356C10.2411 16.2576 10.3379 16.4025 10.404 16.5619C10.47 16.7214 10.504 16.8923 10.504 17.0648C10.504 17.2374 10.47 17.4083 10.404 17.5678C10.3379 17.7272 10.2411 17.8721 10.1191 17.9941C9.99707 18.1161 9.85219 18.2129 9.69275 18.279C9.53331 18.345 9.36242 18.379 9.18985 18.379C9.01727 18.379 8.84638 18.345 8.68694 18.279C8.5275 18.2129 8.38263 18.1161 8.2606 17.9941L0.385596 10.1191C0.263368 9.99718 0.166392 9.85234 0.100225 9.69288C0.0340584 9.53343 0 9.36248 0 9.18985C0 9.01721 0.0340584 8.84626 0.100225 8.68681C0.166392 8.52735 0.263368 8.38251 0.385596 8.26059L8.2606 0.385595C8.38252 0.263367 8.52735 0.166392 8.68681 0.100225C8.84626 0.0340577 9.01721 0 9.18985 0C9.36249 0 9.53343 0.0340577 9.69288 0.100225C9.85234 0.166392 9.99718 0.263367 10.1191 0.385595Z" fill="#3E3C3C"/>
<path fill-rule="evenodd" clip-rule="evenodd" d="M1.31494 9.18979C1.31494 8.84169 1.45322 8.50785 1.69936 8.26171C1.94551 8.01557 2.27934 7.87729 2.62744 7.87729H19.6899C20.038 7.87729 20.3719 8.01557 20.618 8.26171C20.8642 8.50785 21.0024 8.84169 21.0024 9.18979C21.0024 9.53789 20.8642 9.87173 20.618 10.1179C20.3719 10.364 20.038 10.5023 19.6899 10.5023H2.62744C2.27934 10.5023 1.94551 10.364 1.69936 10.1179C1.45322 9.87173 1.31494 9.53789 1.31494 9.18979Z" fill="#3E3C3C"/>
<path fill-rule="evenodd" clip-rule="evenodd" d="M701.883 17.9934C701.761 17.8715 701.664 17.7267 701.598 17.5672C701.532 17.4078 701.498 17.2368 701.498 17.0642C701.498 16.8915 701.532 16.7206 701.598 16.5611C701.664 16.4017 701.761 16.2569 701.883 16.1349L708.832 9.18918L701.883 2.24343C701.761 2.1214 701.665 1.97653 701.598 1.81709C701.532 1.65765 701.498 1.48676 701.498 1.31418C701.498 1.14161 701.532 0.970718 701.598 0.811277C701.665 0.651836 701.761 0.506966 701.883 0.384933C702.005 0.262903 702.15 0.166103 702.31 0.10006C702.469 0.0340176 702.64 2.67029e-05 702.813 2.67029e-05C702.985 2.67029e-05 703.156 0.0340176 703.316 0.10006C703.475 0.166103 703.62 0.262903 703.742 0.384933L711.617 8.25993C711.739 8.38185 711.836 8.52669 711.902 8.68615C711.968 8.8456 712.002 9.01654 712.002 9.18918C712.002 9.36182 711.968 9.53277 711.902 9.69222C711.836 9.85168 711.739 9.99651 711.617 10.1184L703.742 17.9934C703.62 18.1157 703.475 18.2126 703.316 18.2788C703.156 18.345 702.985 18.379 702.813 18.379C702.64 18.379 702.469 18.345 702.31 18.2788C702.15 18.2126 702.005 18.1157 701.883 17.9934Z" fill="#3E3C3C"/>
<path fill-rule="evenodd" clip-rule="evenodd" d="M710.688 9.18924C710.688 9.53734 710.549 9.87118 710.303 10.1173C710.057 10.3635 709.723 10.5017 709.375 10.5017L692.312 10.5017C691.964 10.5017 691.631 10.3635 691.384 10.1173C691.138 9.87118 691 9.53734 691 9.18924C691 8.84114 691.138 8.5073 691.384 8.26116C691.631 8.01502 691.964 7.87674 692.312 7.87674L709.375 7.87674C709.723 7.87674 710.057 8.01502 710.303 8.26116C710.549 8.5073 710.688 8.84114 710.688 9.18924Z" fill="#3E3C3C"/>
</svg>
