<svg width="43" height="35" viewBox="0 0 43 35" fill="none" xmlns="http://www.w3.org/2000/svg">
<path d="M21.5 0L26.5516 13.1111H42.8988L29.6736 21.2142L34.7252 34.3253L21.5 26.2222L8.27483 34.3253L13.3264 21.2142L0.101229 13.1111H16.4484L21.5 0Z" fill="#D9D9D9"/>
<path d="M21.5 1.39072L26.085 13.2909L26.2084 13.6111H26.5516H41.1257L29.4124 20.7879L29.0573 21.0054L29.207 21.394L33.728 33.128L21.7612 25.7959L21.5 25.6358L21.2388 25.7959L9.27198 33.128L13.793 21.394L13.9427 21.0054L13.5876 20.7879L1.87433 13.6111H16.4484H16.7916L16.915 13.2909L21.5 1.39072Z" stroke="black" stroke-opacity="0.53"/>
</svg>
